<?xml version="1.0" encoding="utf-8"?>
<!-- Generator: Adobe Illustrator 27.5.0, SVG Export Plug-In . SVG Version: 6.00 Build 0)  -->
<svg version="1.1" id="Layer9" xmlns="http://www.w3.org/2000/svg" xmlns:xlink="http://www.w3.org/1999/xlink" x="0px" y="0px"
	 viewBox="0 0 100 100" style="enable-background:new 0 0 100 100;" xml:space="preserve">
<g>
	<path d="M84.99,15.38H74.93v-4.34c0-1.6-1.3-2.9-2.9-2.9h-0.43c-1.6,0-2.9,1.3-2.9,2.9v4.34H53.12v-4.34c0-1.6-1.3-2.9-2.9-2.9
		h-0.43c-1.6,0-2.9,1.3-2.9,2.9v4.34H31.31v-4.34c0-1.6-1.3-2.9-2.9-2.9h-0.43c-1.6,0-2.9,1.3-2.9,2.9v4.34H15.01
		c-5.39,0-9.77,4.38-9.77,9.77v56.54c0,5.39,4.38,9.77,9.77,9.77h69.98c5.39,0,9.77-4.38,9.77-9.77V25.15
		C94.76,19.76,90.38,15.38,84.99,15.38z M69.69,11.05c0-1.05,0.85-1.9,1.9-1.9h0.43c1.05,0,1.9,0.85,1.9,1.9v9.67
		c0,1.05-0.85,1.9-1.9,1.9h-0.43c-1.05,0-1.9-0.85-1.9-1.9V11.05z M47.88,11.05c0-1.05,0.85-1.9,1.9-1.9h0.43
		c1.05,0,1.9,0.85,1.9,1.9v9.67c0,1.05-0.85,1.9-1.9,1.9h-0.43c-1.05,0-1.9-0.85-1.9-1.9V11.05z M26.07,11.05
		c0-1.05,0.85-1.9,1.9-1.9h0.43c1.05,0,1.9,0.85,1.9,1.9v9.67c0,1.05-0.85,1.9-1.9,1.9h-0.43c-1.05,0-1.9-0.85-1.9-1.9V11.05z
		 M15.01,16.38h10.06v4.34c0,1.6,1.3,2.9,2.9,2.9h0.43c1.6,0,2.9-1.3,2.9-2.9v-4.34h15.57v4.34c0,1.6,1.3,2.9,2.9,2.9h0.43
		c1.6,0,2.9-1.3,2.9-2.9v-4.34h15.57v4.34c0,1.6,1.3,2.9,2.9,2.9h0.43c1.6,0,2.9-1.3,2.9-2.9v-4.34h10.06
		c4.84,0,8.77,3.93,8.77,8.77v8.01H6.24v-8.01C6.24,20.31,10.18,16.38,15.01,16.38z M84.99,90.46H15.01c-4.84,0-8.77-3.93-8.77-8.77
		V34.16h87.52v47.53C93.76,86.53,89.82,90.46,84.99,90.46z"/>
	<path d="M15.9,38.09h-4.36c-1.19,0-2.16,0.97-2.16,2.16v4.36c0,1.19,0.97,2.16,2.16,2.16h4.36c1.19,0,2.16-0.97,2.16-2.16v-4.36
		C18.06,39.06,17.09,38.09,15.9,38.09z M17.06,44.62c0,0.64-0.52,1.16-1.16,1.16h-4.36c-0.64,0-1.16-0.52-1.16-1.16v-4.36
		c0-0.64,0.52-1.16,1.16-1.16h4.36c0.64,0,1.16,0.52,1.16,1.16V44.62z"/>
	<path d="M27.99,38.09h-4.36c-1.19,0-2.16,0.97-2.16,2.16v4.36c0,1.19,0.97,2.16,2.16,2.16h4.36c1.19,0,2.16-0.97,2.16-2.16v-4.36
		C30.15,39.06,29.18,38.09,27.99,38.09z M29.15,44.62c0,0.64-0.52,1.16-1.16,1.16h-4.36c-0.64,0-1.16-0.52-1.16-1.16v-4.36
		c0-0.64,0.52-1.16,1.16-1.16h4.36c0.64,0,1.16,0.52,1.16,1.16V44.62z"/>
	<path d="M40.09,38.09h-4.36c-1.19,0-2.16,0.97-2.16,2.16v4.36c0,1.19,0.97,2.16,2.16,2.16h4.36c1.19,0,2.16-0.97,2.16-2.16v-4.36
		C42.25,39.06,41.28,38.09,40.09,38.09z M41.25,44.62c0,0.64-0.52,1.16-1.16,1.16h-4.36c-0.64,0-1.16-0.52-1.16-1.16v-4.36
		c0-0.64,0.52-1.16,1.16-1.16h4.36c0.64,0,1.16,0.52,1.16,1.16V44.62z"/>
	<path d="M52.18,38.09h-4.36c-1.19,0-2.16,0.97-2.16,2.16v4.36c0,1.19,0.97,2.16,2.16,2.16h4.36c1.19,0,2.16-0.97,2.16-2.16v-4.36
		C54.34,39.06,53.37,38.09,52.18,38.09z M53.34,44.62c0,0.64-0.52,1.16-1.16,1.16h-4.36c-0.64,0-1.16-0.52-1.16-1.16v-4.36
		c0-0.64,0.52-1.16,1.16-1.16h4.36c0.64,0,1.16,0.52,1.16,1.16V44.62z"/>
	<path d="M64.28,38.09h-4.36c-1.19,0-2.16,0.97-2.16,2.16v4.36c0,1.19,0.97,2.16,2.16,2.16h4.36c1.19,0,2.16-0.97,2.16-2.16v-4.36
		C66.44,39.06,65.47,38.09,64.28,38.09z M65.44,44.62c0,0.64-0.52,1.16-1.16,1.16h-4.36c-0.64,0-1.16-0.52-1.16-1.16v-4.36
		c0-0.64,0.52-1.16,1.16-1.16h4.36c0.64,0,1.16,0.52,1.16,1.16V44.62z"/>
	<path d="M76.37,38.09h-4.36c-1.19,0-2.16,0.97-2.16,2.16v4.36c0,1.19,0.97,2.16,2.16,2.16h4.36c1.19,0,2.16-0.97,2.16-2.16v-4.36
		C78.53,39.06,77.56,38.09,76.37,38.09z M77.53,44.62c0,0.64-0.52,1.16-1.16,1.16h-4.36c-0.64,0-1.16-0.52-1.16-1.16v-4.36
		c0-0.64,0.52-1.16,1.16-1.16h4.36c0.64,0,1.16,0.52,1.16,1.16V44.62z"/>
	<path d="M88.47,38.09H84.1c-1.19,0-2.16,0.97-2.16,2.16v4.36c0,1.19,0.97,2.16,2.16,2.16h4.36c1.19,0,2.16-0.97,2.16-2.16v-4.36
		C90.63,39.06,89.66,38.09,88.47,38.09z M89.63,44.62c0,0.64-0.52,1.16-1.16,1.16H84.1c-0.64,0-1.16-0.52-1.16-1.16v-4.36
		c0-0.64,0.52-1.16,1.16-1.16h4.36c0.64,0,1.16,0.52,1.16,1.16V44.62z"/>
	<path d="M15.9,51.09h-4.36c-1.19,0-2.16,0.97-2.16,2.16v4.36c0,1.19,0.97,2.16,2.16,2.16h4.36c1.19,0,2.16-0.97,2.16-2.16v-4.36
		C18.06,52.06,17.09,51.09,15.9,51.09z M17.06,57.62c0,0.64-0.52,1.16-1.16,1.16h-4.36c-0.64,0-1.16-0.52-1.16-1.16v-4.36
		c0-0.64,0.52-1.16,1.16-1.16h4.36c0.64,0,1.16,0.52,1.16,1.16V57.62z"/>
	<path d="M27.99,51.09h-4.36c-1.19,0-2.16,0.97-2.16,2.16v4.36c0,1.19,0.97,2.16,2.16,2.16h4.36c1.19,0,2.16-0.97,2.16-2.16v-4.36
		C30.15,52.06,29.18,51.09,27.99,51.09z M29.15,57.62c0,0.64-0.52,1.16-1.16,1.16h-4.36c-0.64,0-1.16-0.52-1.16-1.16v-4.36
		c0-0.64,0.52-1.16,1.16-1.16h4.36c0.64,0,1.16,0.52,1.16,1.16V57.62z"/>
	<path d="M40.09,51.09h-4.36c-1.19,0-2.16,0.97-2.16,2.16v4.36c0,1.19,0.97,2.16,2.16,2.16h4.36c1.19,0,2.16-0.97,2.16-2.16v-4.36
		C42.25,52.06,41.28,51.09,40.09,51.09z M41.25,57.62c0,0.64-0.52,1.16-1.16,1.16h-4.36c-0.64,0-1.16-0.52-1.16-1.16v-4.36
		c0-0.64,0.52-1.16,1.16-1.16h4.36c0.64,0,1.16,0.52,1.16,1.16V57.62z"/>
	<path d="M52.18,51.09h-4.36c-1.19,0-2.16,0.97-2.16,2.16v4.36c0,1.19,0.97,2.16,2.16,2.16h4.36c1.19,0,2.16-0.97,2.16-2.16v-4.36
		C54.34,52.06,53.37,51.09,52.18,51.09z M53.34,57.62c0,0.64-0.52,1.16-1.16,1.16h-4.36c-0.64,0-1.16-0.52-1.16-1.16v-4.36
		c0-0.64,0.52-1.16,1.16-1.16h4.36c0.64,0,1.16,0.52,1.16,1.16V57.62z"/>
	<path d="M64.28,51.09h-4.36c-1.19,0-2.16,0.97-2.16,2.16v4.36c0,1.19,0.97,2.16,2.16,2.16h4.36c1.19,0,2.16-0.97,2.16-2.16v-4.36
		C66.44,52.06,65.47,51.09,64.28,51.09z M65.44,57.62c0,0.64-0.52,1.16-1.16,1.16h-4.36c-0.64,0-1.16-0.52-1.16-1.16v-4.36
		c0-0.64,0.52-1.16,1.16-1.16h4.36c0.64,0,1.16,0.52,1.16,1.16V57.62z"/>
	<path d="M76.37,51.09h-4.36c-1.19,0-2.16,0.97-2.16,2.16v4.36c0,1.19,0.97,2.16,2.16,2.16h4.36c1.19,0,2.16-0.97,2.16-2.16v-4.36
		C78.53,52.06,77.56,51.09,76.37,51.09z M77.53,57.62c0,0.64-0.52,1.16-1.16,1.16h-4.36c-0.64,0-1.16-0.52-1.16-1.16v-4.36
		c0-0.64,0.52-1.16,1.16-1.16h4.36c0.64,0,1.16,0.52,1.16,1.16V57.62z"/>
	<path d="M88.47,51.09H84.1c-1.19,0-2.16,0.97-2.16,2.16v4.36c0,1.19,0.97,2.16,2.16,2.16h4.36c1.19,0,2.16-0.97,2.16-2.16v-4.36
		C90.63,52.06,89.66,51.09,88.47,51.09z M89.63,57.62c0,0.64-0.52,1.16-1.16,1.16H84.1c-0.64,0-1.16-0.52-1.16-1.16v-4.36
		c0-0.64,0.52-1.16,1.16-1.16h4.36c0.64,0,1.16,0.52,1.16,1.16V57.62z"/>
	<path d="M15.9,64.26h-4.36c-1.19,0-2.16,0.97-2.16,2.16v4.36c0,1.19,0.97,2.16,2.16,2.16h4.36c1.19,0,2.16-0.97,2.16-2.16v-4.36
		C18.06,65.23,17.09,64.26,15.9,64.26z M17.06,70.79c0,0.64-0.52,1.16-1.16,1.16h-4.36c-0.64,0-1.16-0.52-1.16-1.16v-4.36
		c0-0.64,0.52-1.16,1.16-1.16h4.36c0.64,0,1.16,0.52,1.16,1.16V70.79z"/>
	<path d="M27.99,64.26h-4.36c-1.19,0-2.16,0.97-2.16,2.16v4.36c0,1.19,0.97,2.16,2.16,2.16h4.36c1.19,0,2.16-0.97,2.16-2.16v-4.36
		C30.15,65.23,29.18,64.26,27.99,64.26z M29.15,70.79c0,0.64-0.52,1.16-1.16,1.16h-4.36c-0.64,0-1.16-0.52-1.16-1.16v-4.36
		c0-0.64,0.52-1.16,1.16-1.16h4.36c0.64,0,1.16,0.52,1.16,1.16V70.79z"/>
	<path d="M40.09,64.26h-4.36c-1.19,0-2.16,0.97-2.16,2.16v4.36c0,1.19,0.97,2.16,2.16,2.16h4.36c1.19,0,2.16-0.97,2.16-2.16v-4.36
		C42.25,65.23,41.28,64.26,40.09,64.26z M41.25,70.79c0,0.64-0.52,1.16-1.16,1.16h-4.36c-0.64,0-1.16-0.52-1.16-1.16v-4.36
		c0-0.64,0.52-1.16,1.16-1.16h4.36c0.64,0,1.16,0.52,1.16,1.16V70.79z"/>
	<path d="M52.18,64.26h-4.36c-1.19,0-2.16,0.97-2.16,2.16v4.36c0,1.19,0.97,2.16,2.16,2.16h4.36c1.19,0,2.16-0.97,2.16-2.16v-4.36
		C54.34,65.23,53.37,64.26,52.18,64.26z M53.34,70.79c0,0.64-0.52,1.16-1.16,1.16h-4.36c-0.64,0-1.16-0.52-1.16-1.16v-4.36
		c0-0.64,0.52-1.16,1.16-1.16h4.36c0.64,0,1.16,0.52,1.16,1.16V70.79z"/>
	<path d="M64.28,64.26h-4.36c-1.19,0-2.16,0.97-2.16,2.16v4.36c0,1.19,0.97,2.16,2.16,2.16h4.36c1.19,0,2.16-0.97,2.16-2.16v-4.36
		C66.44,65.23,65.47,64.26,64.28,64.26z M65.44,70.79c0,0.64-0.52,1.16-1.16,1.16h-4.36c-0.64,0-1.16-0.52-1.16-1.16v-4.36
		c0-0.64,0.52-1.16,1.16-1.16h4.36c0.64,0,1.16,0.52,1.16,1.16V70.79z"/>
	<path d="M76.37,64.26h-4.36c-1.19,0-2.16,0.97-2.16,2.16v4.36c0,1.19,0.97,2.16,2.16,2.16h4.36c1.19,0,2.16-0.97,2.16-2.16v-4.36
		C78.53,65.23,77.56,64.26,76.37,64.26z M77.53,70.79c0,0.64-0.52,1.16-1.16,1.16h-4.36c-0.64,0-1.16-0.52-1.16-1.16v-4.36
		c0-0.64,0.52-1.16,1.16-1.16h4.36c0.64,0,1.16,0.52,1.16,1.16V70.79z"/>
	<path d="M88.47,64.26H84.1c-1.19,0-2.16,0.97-2.16,2.16v4.36c0,1.19,0.97,2.16,2.16,2.16h4.36c1.19,0,2.16-0.97,2.16-2.16v-4.36
		C90.63,65.23,89.66,64.26,88.47,64.26z M89.63,70.79c0,0.64-0.52,1.16-1.16,1.16H84.1c-0.64,0-1.16-0.52-1.16-1.16v-4.36
		c0-0.64,0.52-1.16,1.16-1.16h4.36c0.64,0,1.16,0.52,1.16,1.16V70.79z"/>
	<path d="M15.9,77.26h-4.36c-1.19,0-2.16,0.97-2.16,2.16v4.36c0,1.19,0.97,2.16,2.16,2.16h4.36c1.19,0,2.16-0.97,2.16-2.16v-4.36
		C18.06,78.23,17.09,77.26,15.9,77.26z M17.06,83.79c0,0.64-0.52,1.16-1.16,1.16h-4.36c-0.64,0-1.16-0.52-1.16-1.16v-4.36
		c0-0.64,0.52-1.16,1.16-1.16h4.36c0.64,0,1.16,0.52,1.16,1.16V83.79z"/>
	<path d="M27.99,77.26h-4.36c-1.19,0-2.16,0.97-2.16,2.16v4.36c0,1.19,0.97,2.16,2.16,2.16h4.36c1.19,0,2.16-0.97,2.16-2.16v-4.36
		C30.15,78.23,29.18,77.26,27.99,77.26z M29.15,83.79c0,0.64-0.52,1.16-1.16,1.16h-4.36c-0.64,0-1.16-0.52-1.16-1.16v-4.36
		c0-0.64,0.52-1.16,1.16-1.16h4.36c0.64,0,1.16,0.52,1.16,1.16V83.79z"/>
	<path d="M40.09,77.26h-4.36c-1.19,0-2.16,0.97-2.16,2.16v4.36c0,1.19,0.97,2.16,2.16,2.16h4.36c1.19,0,2.16-0.97,2.16-2.16v-4.36
		C42.25,78.23,41.28,77.26,40.09,77.26z M41.25,83.79c0,0.64-0.52,1.16-1.16,1.16h-4.36c-0.64,0-1.16-0.52-1.16-1.16v-4.36
		c0-0.64,0.52-1.16,1.16-1.16h4.36c0.64,0,1.16,0.52,1.16,1.16V83.79z"/>
	<path d="M52.18,77.26h-4.36c-1.19,0-2.16,0.97-2.16,2.16v4.36c0,1.19,0.97,2.16,2.16,2.16h4.36c1.19,0,2.16-0.97,2.16-2.16v-4.36
		C54.34,78.23,53.37,77.26,52.18,77.26z M53.34,83.79c0,0.64-0.52,1.16-1.16,1.16h-4.36c-0.64,0-1.16-0.52-1.16-1.16v-4.36
		c0-0.64,0.52-1.16,1.16-1.16h4.36c0.64,0,1.16,0.52,1.16,1.16V83.79z"/>
	<path d="M64.28,77.26h-4.36c-1.19,0-2.16,0.97-2.16,2.16v4.36c0,1.19,0.97,2.16,2.16,2.16h4.36c1.19,0,2.16-0.97,2.16-2.16v-4.36
		C66.44,78.23,65.47,77.26,64.28,77.26z M65.44,83.79c0,0.64-0.52,1.16-1.16,1.16h-4.36c-0.64,0-1.16-0.52-1.16-1.16v-4.36
		c0-0.64,0.52-1.16,1.16-1.16h4.36c0.64,0,1.16,0.52,1.16,1.16V83.79z"/>
	<path d="M76.37,77.26h-4.36c-1.19,0-2.16,0.97-2.16,2.16v4.36c0,1.19,0.97,2.16,2.16,2.16h4.36c1.19,0,2.16-0.97,2.16-2.16v-4.36
		C78.53,78.23,77.56,77.26,76.37,77.26z M77.53,83.79c0,0.64-0.52,1.16-1.16,1.16h-4.36c-0.64,0-1.16-0.52-1.16-1.16v-4.36
		c0-0.64,0.52-1.16,1.16-1.16h4.36c0.64,0,1.16,0.52,1.16,1.16V83.79z"/>
	<path d="M88.47,77.26H84.1c-1.19,0-2.16,0.97-2.16,2.16v4.36c0,1.19,0.97,2.16,2.16,2.16h4.36c1.19,0,2.16-0.97,2.16-2.16v-4.36
		C90.63,78.23,89.66,77.26,88.47,77.26z M89.63,83.79c0,0.64-0.52,1.16-1.16,1.16H84.1c-0.64,0-1.16-0.52-1.16-1.16v-4.36
		c0-0.64,0.52-1.16,1.16-1.16h4.36c0.64,0,1.16,0.52,1.16,1.16V83.79z"/>
	<path d="M29.33,28.89h41.35c0.28,0,0.5-0.22,0.5-0.5s-0.22-0.5-0.5-0.5H29.33c-0.28,0-0.5,0.22-0.5,0.5S29.05,28.89,29.33,28.89z"
		/>
</g>
</svg>
