<?xml version="1.0" encoding="UTF-8" standalone="no"?>
<svg
   xmlns:dc="http://purl.org/dc/elements/1.1/"
   xmlns:cc="http://creativecommons.org/ns#"
   xmlns:rdf="http://www.w3.org/1999/02/22-rdf-syntax-ns#"
   xmlns:svg="http://www.w3.org/2000/svg"
   xmlns="http://www.w3.org/2000/svg"
   xmlns:sodipodi="http://sodipodi.sourceforge.net/DTD/sodipodi-0.dtd"
   xmlns:inkscape="http://www.inkscape.org/namespaces/inkscape"
   inkscape:export-ydpi="576"
   inkscape:export-xdpi="576"
   inkscape:export-filename="D:\september#1\export\expanded line\png\18 - Surfing.png"
   width="65"
   height="65"
   viewBox="0 0 22.577778 22.577778"
   version="1.1"
   id="svg831"
   inkscape:version="1.0 (4035a4fb49, 2020-05-01)"
   sodipodi:docname="19 - Thropy.svg">
  <defs
     id="defs825">
    <pattern
       id="EMFhbasepattern"
       patternUnits="userSpaceOnUse"
       width="6"
       height="6"
       x="0"
       y="0" />
    <pattern
       id="EMFhbasepattern-9"
       patternUnits="userSpaceOnUse"
       width="6"
       height="6"
       x="0"
       y="0" />
    <pattern
       id="EMFhbasepattern-0"
       patternUnits="userSpaceOnUse"
       width="6"
       height="6"
       x="0"
       y="0" />
    <pattern
       id="EMFhbasepattern-7"
       patternUnits="userSpaceOnUse"
       width="6"
       height="6"
       x="0"
       y="0" />
    <pattern
       id="EMFhbasepattern-2"
       patternUnits="userSpaceOnUse"
       width="6"
       height="6"
       x="0"
       y="0" />
    <pattern
       id="EMFhbasepattern-98"
       patternUnits="userSpaceOnUse"
       width="6"
       height="6"
       x="0"
       y="0" />
    <pattern
       id="EMFhbasepattern-6"
       patternUnits="userSpaceOnUse"
       width="6"
       height="6"
       x="0"
       y="0" />
    <pattern
       id="EMFhbasepattern-01"
       patternUnits="userSpaceOnUse"
       width="6"
       height="6"
       x="0"
       y="0" />
    <pattern
       id="EMFhbasepattern-07"
       patternUnits="userSpaceOnUse"
       width="6"
       height="6"
       x="0"
       y="0" />
    <pattern
       id="EMFhbasepattern-8"
       patternUnits="userSpaceOnUse"
       width="6"
       height="6"
       x="0"
       y="0" />
    <pattern
       id="EMFhbasepattern-4"
       patternUnits="userSpaceOnUse"
       width="6"
       height="6"
       x="0"
       y="0" />
    <pattern
       id="EMFhbasepattern-40"
       patternUnits="userSpaceOnUse"
       width="6"
       height="6"
       x="0"
       y="0" />
    <pattern
       id="EMFhbasepattern-08"
       patternUnits="userSpaceOnUse"
       width="6"
       height="6"
       x="0"
       y="0" />
    <pattern
       id="EMFhbasepattern-04"
       patternUnits="userSpaceOnUse"
       width="6"
       height="6"
       x="0"
       y="0" />
    <pattern
       id="EMFhbasepattern-014"
       patternUnits="userSpaceOnUse"
       width="6"
       height="6"
       x="0"
       y="0" />
    <pattern
       id="EMFhbasepattern-27"
       patternUnits="userSpaceOnUse"
       width="6"
       height="6"
       x="0"
       y="0" />
    <pattern
       id="EMFhbasepattern-09"
       patternUnits="userSpaceOnUse"
       width="6"
       height="6"
       x="0"
       y="0" />
    <pattern
       id="EMFhbasepattern-5"
       patternUnits="userSpaceOnUse"
       width="6"
       height="6"
       x="0"
       y="0" />
    <pattern
       id="EMFhbasepattern-018"
       patternUnits="userSpaceOnUse"
       width="6"
       height="6"
       x="0"
       y="0" />
  </defs>
  <sodipodi:namedview
     id="base"
     pagecolor="#ffffff"
     bordercolor="#666666"
     borderopacity="1.0"
     inkscape:pageopacity="0.0"
     inkscape:pageshadow="2"
     inkscape:zoom="6.0079346"
     inkscape:cx="35.842358"
     inkscape:cy="42.666667"
     inkscape:document-units="pt"
     inkscape:current-layer="layer1"
     showgrid="false"
     units="pt"
     inkscape:window-width="1366"
     inkscape:window-height="705"
     inkscape:window-x="-8"
     inkscape:window-y="-8"
     inkscape:window-maximized="1"
     inkscape:pagecheckerboard="true"
     inkscape:showpageshadow="false"
     inkscape:object-paths="true"
     inkscape:snap-intersection-paths="true"
     inkscape:snap-smooth-nodes="true"
     inkscape:snap-midpoints="true"
     showguides="true"
     inkscape:snap-bbox="true"
     inkscape:bbox-nodes="true"
     inkscape:snap-nodes="false"
     inkscape:snap-global="true"
     inkscape:document-rotation="0">
    <inkscape:grid
       type="xygrid"
       id="grid1378" />
    <sodipodi:guide
       position="0.97013831,21.607643"
       orientation="78.000048,0"
       id="guide1380"
       inkscape:locked="false" />
    <sodipodi:guide
       position="0.97013831,0.97013129"
       orientation="0,78.000005"
       id="guide1382"
       inkscape:locked="false" />
    <sodipodi:guide
       position="21.607639,0.97013129"
       orientation="-78.000048,0"
       id="guide1384"
       inkscape:locked="false" />
    <sodipodi:guide
       position="21.607639,21.607643"
       orientation="0,-78.000005"
       id="guide1386"
       inkscape:locked="false" />
  </sodipodi:namedview>
  <metadata
     id="metadata828">
    <rdf:RDF>
      <cc:Work
         rdf:about="">
        <dc:format>image/svg+xml</dc:format>
        <dc:type
           rdf:resource="http://purl.org/dc/dcmitype/StillImage" />
        <dc:title></dc:title>
      </cc:Work>
    </rdf:RDF>
  </metadata>
  <g
     inkscape:label="Icon"
     inkscape:groupmode="layer"
     id="layer1"
     transform="translate(0,-274.42223)">
    <path
       id="path1522"
       style="color:#000000;font-style:normal;font-variant:normal;font-weight:normal;font-stretch:normal;font-size:medium;line-height:normal;font-family:sans-serif;font-variant-ligatures:normal;font-variant-position:normal;font-variant-caps:normal;font-variant-numeric:normal;font-variant-alternates:normal;font-variant-east-asian:normal;font-feature-settings:normal;font-variation-settings:normal;text-indent:0;text-align:start;text-decoration:none;text-decoration-line:none;text-decoration-style:solid;text-decoration-color:#000000;letter-spacing:normal;word-spacing:normal;text-transform:none;writing-mode:lr-tb;direction:ltr;text-orientation:mixed;dominant-baseline:auto;baseline-shift:baseline;text-anchor:start;white-space:normal;shape-padding:0;shape-margin:0;inline-size:0;clip-rule:nonzero;display:inline;overflow:visible;visibility:visible;isolation:auto;mix-blend-mode:normal;color-interpolation:sRGB;color-interpolation-filters:linearRGB;solid-color:#000000;solid-opacity:1;vector-effect:none;fill:#000000;fill-opacity:1;fill-rule:nonzero;stroke:none;stroke-width:0.529167;stroke-linecap:round;stroke-linejoin:round;stroke-miterlimit:4;stroke-dasharray:none;stroke-dashoffset:0;stroke-opacity:1;color-rendering:auto;image-rendering:auto;shape-rendering:auto;text-rendering:auto;enable-background:accumulate;stop-color:#000000"
       d="m 20.01003,278.59808 c -0.299645,-0.0589 -0.578205,-0.003 -0.816536,0.0789 -0.565059,0.28374 -1.01921,0.29104 -1.556709,0.41637 v -0.59331 l 0.562632,-0.5646 c 0.286772,-0.26813 0.262621,-0.62338 0.18537,-0.92031 -0.03862,-0.14847 -0.100881,-0.29034 -0.20495,-0.41643 -0.104064,-0.12606 -0.274403,-0.24477 -0.483656,-0.24477 H 15.56901 c -0.0091,-0.11102 -0.03535,-0.21945 -0.0953,-0.31329 -0.152756,-0.23916 -0.432453,-0.35696 -0.725153,-0.35507 l -0.789771,0.005 c -0.499622,0.003 -0.982283,0.26014 -1.272778,0.66314 H 9.8519578 C 9.5206537,275.98102 9.0321239,275.7374 8.5341435,275.72776 l -0.5822155,-0.0274 c -0.332184,-0.0152 -0.6519833,0.11216 -0.8165364,0.3753 -0.053707,0.0859 -0.081167,0.18042 -0.097251,0.27805 H 4.8809434 c -0.2079072,0 -0.3772492,0.11873 -0.481044,0.24477 -0.1038012,0.12593 -0.1643826,0.26861 -0.2023395,0.41644 -0.075924,0.29565 -0.1022173,0.6412 0.1697029,0.91313 l 0.5724237,0.57178 v 0.59461 c -0.1004794,-0.0414 -0.2111554,-0.0672 -0.3488733,-0.0659 -0.3675309,0.0313 -0.7298686,-0.1896 -1.2065314,-0.35178 -0.6724222,-0.21231 -1.277526,0.0179 -1.7019321,0.46309 -0.6511277,0.76216 -0.78374944,1.60992 -0.6811009,2.30047 0.1024484,0.68918 0.3934605,1.21755 0.6983985,1.50449 0.8362133,0.81091 1.5277877,1.11455 2.1833034,1.42878 0.6262207,0.30018 1.2345394,0.61805 2.0736502,1.45619 -0.046175,0.12739 -0.1635206,0.21604 -0.3100376,0.21604 -0.188521,0 -0.3354927,-0.14501 -0.3354893,-0.33353 6.683e-4,-0.18464 -0.1482482,-0.33487 -0.3328826,-0.3355 -0.1855968,-7.3e-4 -0.3362245,0.1499 -0.3354892,0.3355 -3.3e-6,0.54973 0.4541185,1.0019 1.0038611,1.0019 0.2654405,0 0.5067026,-0.10724 0.6866484,-0.27806 0.8031289,1.34442 1.9627139,2.40406 3.2661461,2.9274 -0.031551,0.39731 -0.1075373,0.73432 -0.218658,1.02736 H 8.5563334 c -0.2304045,10e-4 -0.3906734,0.22943 -0.3132994,0.44645 0.025465,0.0715 0.037038,0.14599 0.037201,0.22192 0,0.37308 -0.295935,0.66836 -0.6690235,0.66837 -0.075898,-4e-5 -0.1503703,-0.0138 -0.2219195,-0.0392 -0.2180663,-0.0777 -0.4472143,0.0844 -0.4464523,0.31591 v 1.72641 c -0.3645066,0 -0.6683718,0.30451 -0.6683718,0.66902 v 0.66838 c 0,0.36451 0.3038485,0.66837 0.6683718,0.66837 h 8.6907913 c 0.364521,0 0.666415,-0.30386 0.666415,-0.66837 v -0.66838 c 0,-0.36451 -0.301908,-0.66902 -0.666415,-0.66902 v -1.72902 c -10e-4,-0.23041 -0.229424,-0.39068 -0.446452,-0.3133 -0.07077,0.0253 -0.146815,0.0387 -0.221919,0.0392 -0.373089,-10e-6 -0.668372,-0.29529 -0.668372,-0.66837 2e-5,-0.0759 0.01187,-0.15299 0.03721,-0.22454 0.07542,-0.21722 -0.08596,-0.44395 -0.315913,-0.44383 h -0.82111 c -0.109116,-0.28743 -0.185208,-0.61645 -0.218002,-1.00387 1.289045,-0.51496 2.412752,-1.58872 3.241343,-2.95676 0.1806,0.17462 0.425074,0.28393 0.693826,0.28393 0.549743,0 1.001257,-0.45217 1.001251,-1.0019 6.68e-4,-0.18464 -0.148245,-0.33487 -0.33288,-0.3355 -0.185596,-7.3e-4 -0.336227,0.1499 -0.335491,0.3355 2e-6,0.18852 -0.144356,0.33353 -0.33288,0.33353 -0.146514,0 -0.265808,-0.0887 -0.312647,-0.21604 0.839407,-0.83773 1.455596,-1.156 2.086051,-1.45619 0.659981,-0.31424 1.353824,-0.61744 2.190486,-1.42878 0.304938,-0.28694 0.59595,-0.81531 0.698395,-1.50449 0.102649,-0.69055 -0.02997,-1.53831 -0.681098,-2.30047 -0.288602,-0.30807 -0.585755,-0.48321 -0.885399,-0.54207 z m -6.827916,-1.78521 c 0.121292,-0.20768 0.544175,-0.45288 0.781945,-0.45363 l 0.78651,-0.005 c 0.245256,-0.0263 0.135443,0.10661 0.128584,0.16318 -0.769225,1.27489 -1.411126,2.37445 -2.300793,3.73251 -0.299924,-0.38668 -0.516988,-0.70673 -0.746043,-1.03618 z m -1.613493,3.19171 c -0.543316,-0.0405 -1.15542,0.0693 -1.6017432,0.25585 -0.7571909,-1.322 -1.3741951,-2.31898 -2.2296474,-3.59512 -0.066968,-0.14035 -0.052261,-0.21023 -0.037201,-0.23432 0.2208066,-0.11683 0.508935,-0.0487 0.816864,-0.0346 0.3061711,0.006 0.808041,0.30372 0.9679627,0.57601 0.7543679,1.13317 1.3873789,2.01432 2.0837659,3.03214 z m -4.3959777,-2.98155 c 0.236657,0.35287 0.4528921,0.68204 0.6592352,1.00125 H 5.4109889 l -0.5698138,-0.56982 c -0.1055733,-0.16671 -0.105553,-0.26731 0.073785,-0.43143 z m 3.1532277,0 h 1.972478 l -0.885071,1.57629 c -0.345979,-0.50045 -0.705813,-1.01554 -1.087407,-1.57629 z m 6.839729,1.0013 h -2.40914 c 0.196274,-0.32909 0.426659,-0.67018 0.599176,-1.00128 l 2.308299,10e-4 c 0.234467,0.11039 0.138831,0.25336 0.07575,0.42687 z m -11.5575016,3.35487 6.7e-6,-2.68654 h 2.6473773 c 0.3700909,0.59196 0.7322382,1.19972 1.1272257,1.88893 -0.8896328,0.61012 -1.4751131,1.63359 -1.4751164,2.79098 -3.4e-6,1.86356 1.5161547,3.38232 3.3797153,3.38232 1.86356,0 3.382329,-1.51876 3.382325,-3.38232 -4e-6,-1.15169 -0.581045,-2.17068 -1.464021,-2.78184 0.417194,-0.67837 0.798239,-1.3079 1.150722,-1.89807 h 2.612134 v 2.68654 c 0,1.26756 -0.264521,2.52036 -0.779331,3.67866 -1.039299,2.33843 -2.902104,3.97396 -4.877026,3.99391 -1.9738112,-0.0467 -3.9969464,-1.70335 -4.9217392,-3.98935 C 5.873275,283.8989 5.6080984,282.64676 5.6080984,281.3792 Z m -3.9456528,-0.0379 c -0.079673,-0.53602 0.00589,-1.15101 0.5208589,-1.75643 0.3205511,-0.33304 0.6019891,-0.35571 0.9843312,-0.27415 0.3606402,0.12264 0.8280626,0.20225 1.43987,0.38575 0.1795682,0.0538 0.3315759,0.14703 0.3315759,0.33484 0,0.18294 -0.143359,0.31481 -0.3237426,0.32309 -0.2024765,-0.048 -0.4627003,-0.15627 -0.7545315,-0.2389 -0.3128147,-0.0885 -0.7196927,-0.13908 -1.0462894,0.12265 -0.1871607,0.15008 -0.3428412,0.37774 -0.370084,0.63901 -0.026869,0.2575 0.041453,0.51655 0.1579562,0.84394 0.1702478,0.5598 0.6741266,0.8567 1.1820524,1.11743 0.4792694,0.24602 0.9990119,0.47652 1.4229,0.79239 0.071707,0.30113 0.1574951,0.59879 0.2578211,0.89225 -0.4759409,-0.34619 -0.8999326,-0.56579 -1.2936669,-0.75453 -0.6703736,-0.32135 -1.241992,-0.56156 -2.0093798,-1.30606 -0.1304629,-0.12264 -0.4197542,-0.58374 -0.4996715,-1.12135 z m 19.2529414,6.3e-4 c -0.07991,0.53761 -0.369209,0.99867 -0.499672,1.12103 -0.766943,0.74374 -1.34172,0.98508 -2.016562,1.3064 -0.391498,0.18641 -0.813114,0.40271 -1.283875,0.74147 0.09832,-0.28876 0.182593,-0.5817 0.253254,-0.87789 0.424215,-0.3166 0.944879,-0.5473 1.424858,-0.79369 0.507925,-0.26073 1.011805,-0.55763 1.182052,-1.11743 0.116505,-0.32739 0.184808,-0.58645 0.157953,-0.84395 -0.02723,-0.26127 -0.18292,-0.48892 -0.370085,-0.639 -0.326596,-0.2618 -0.73347,-0.21191 -1.046289,-0.1234 -0.291827,0.0826 -0.552051,0.19154 -0.754528,0.23954 -0.180387,-0.009 -0.323091,-0.14014 -0.323091,-0.32308 0,-0.18781 0.150287,-0.28468 0.330924,-0.33484 0.59303,-0.16467 1.079214,-0.26308 1.43987,-0.38575 0.137164,-0.0464 0.364791,-0.0346 0.52768,-0.0273 0.194456,0.0331 0.245042,0.0789 0.456648,0.30146 0.514965,0.60543 0.600536,1.22041 0.520863,1.75643 z m -9.62808,-0.68273 c 1.502343,0 2.713299,1.21097 2.713302,2.71331 0,1.50235 -1.210955,2.71394 -2.713302,2.71394 -1.5023459,0 -2.7113436,-1.21159 -2.7113436,-2.71394 6.7e-6,-1.50234 1.2090002,-2.71331 2.7113436,-2.71331 z m -7.6092558,0.0973 c 0.2406707,0.0681 0.5369901,0.20527 0.8955113,0.27282 0.1549988,0.004 0.2657011,-0.022 0.3661708,-0.0633 -0.00735,0.59892 0.025331,1.24406 0.096599,1.76232 -0.3327823,-0.18551 -0.6628978,-0.33877 -0.9464243,-0.48431 -0.4771774,-0.24495 -0.7763674,-0.46691 -0.8534172,-0.72647 -0.2343179,-0.5356 -0.048571,-0.78239 0.4415597,-0.76105 z m 14.8099058,1.48752 c -0.284055,0.14582 -0.614966,0.29964 -0.948382,0.48563 0.08649,-0.64806 0.09726,-1.14306 0.09726,-1.76232 0.500379,0.0114 0.861083,-0.0711 1.262989,-0.21082 0.289811,-0.0861 0.479001,-0.0831 0.56982,0.18994 0.0087,0.0831 -0.01996,0.26669 -0.128262,0.57144 -0.07705,0.25989 -0.376243,0.48119 -0.853421,0.72613 z m -8.8709276,0.31462 c -0.2483539,0.0555 -0.3461264,0.35701 -0.1775364,0.54762 0.4071688,0.46204 0.611817,0.92933 0.5228201,1.55931 -0.035783,0.25596 0.2200609,0.45393 0.4588509,0.35507 0.573031,-0.23445 1.160373,-0.22304 1.663099,-0.003 0.23902,0.10306 0.498893,-0.0946 0.463419,-0.35247 -0.089,-0.62998 0.118261,-1.09728 0.525431,-1.55932 0.16869,-0.19145 0.06927,-0.49369 -0.180146,-0.54761 -0.755872,-0.16592 -1.067533,-0.51215 -1.349145,-0.98428 -0.218896,-0.23769 -0.410672,-0.23341 -0.575038,0 -0.281612,0.47212 -0.595884,0.81836 -1.3517546,0.98428 z m 2.8418866,0.44383 c -0.285699,0.40518 -0.443056,0.87571 -0.45624,1.40397 -0.481238,-0.13828 -0.987045,-0.14452 -1.494701,-0.005 -0.01423,-0.52622 -0.172105,-0.99485 -0.456895,-1.39876 0.541883,-0.2044 0.934319,-0.50992 1.204245,-0.87592 0.269652,0.36609 0.662163,0.67118 1.203591,0.87592 z m -2.206149,6.5708 c 0.709931,0.18459 1.386107,0.18189 2.072344,0.019 0.03312,0.28949 0.0904,0.55351 0.165786,0.79891 H 10.08502 c 0.07716,-0.25049 0.134774,-0.52125 0.167747,-0.81784 z m -1.3041094,1.48621 h 4.6799084 c 0,0.73431 0.60244,1.3348 1.336745,1.3348 v 1.33674 H 7.6112622 v -1.33674 c 0.7343034,0 1.3373954,-0.60049 1.3373954,-1.3348 z m 0.6683718,1.00192 c -0.1835486,6.9e-4 -0.3321641,0.14933 -0.3328792,0.33288 -6.683e-4,0.18456 0.1483151,0.33476 0.3328792,0.33548 h 3.3425136 c 0.184822,-3.6e-4 0.334253,-0.15067 0.333532,-0.33548 -6.7e-4,-0.1838 -0.149729,-0.33253 -0.333532,-0.33288 z m -2.6741389,2.33864 h 8.6907915 v 0.66837 H 6.9428905 Z"
       sodipodi:nodetypes="cccccscscsccccccscscsccccccscscscccsccccccccccssssssccccccccccscccscscscccccccccccccccccsccccsscsscsccccsccsccccscscscscscscccccsccccscsccsccssssssssccsccccccsccccccccccccccccccccccccccccccccccccccccccccccccccccc" />
  </g>
</svg>
